PathFileType	4	(X/Y/Z)	statics_05.trc	
DataRate	CameraRate	NumFrames	NumMarkers	Units	OrigDataRate	OrigDataStartFrame	OrigNumFrames	
150.00	150.00	6	26	mm	150.00	91	720	
Frame#	Time	FT1			FT2			FT3			FT4			FT5			DP2			DP3			DP4			DP5			PP2			PP3			PP4			PP5			IP			MP1			MP2			MP3			MP4			MP5			CMC1			CMC2			CMC5			RS			US			EM			EL			
		X1	Y1	Z1	X2	Y2	Z2	X3	Y3	Z3	X4	Y4	Z4	X5	Y5	Z5	X6	Y6	Z6	X7	Y7	Z7	X8	Y8	Z8	X9	Y9	Z9	X10	Y10	Z10	X11	Y11	Z11	X12	Y12	Z12	X13	Y13	Z13	X14	Y14	Z14	X15	Y15	Z15	X16	Y16	Z16	X17	Y17	Z17	X18	Y18	Z18	X19	Y19	Z19	X20	Y20	Z20	X21	Y21	Z21	X22	Y22	Z22	X23	Y23	Z23	X24	Y24	Z24	X25	Y25	Z25	X26	Y26	Z26	

91	0.6	411.98130777808717	141.88527438306477	-174.8614747367421	433.5329082729551	140.18558895269464	-273.6440821617356	471.31137405956474	139.5299050847548	-295.44736695380044	501.7658880713428	135.73315093609483	-294.92089871052116	538.7141812234397	136.03370814486001	-278.74447587780475	440.584504611869	151.43971471289336	-257.2209454851847	475.4624804510689	149.77008280667684	-277.9594358587025	508.4993906602496	144.88845406679948	-277.7345003786007	543.980765457228	141.0514921823654	-261.0906035361052	451.55624972554784	164.9849765176018	-234.19201041392816	481.05367705762967	166.20978870440157	-250.16212618488152	512.4320303923179	160.02264896166645	-250.714512560591	546.2999818050552	147.12978910581026	-241.26358008116242	430.07346308049483	141.92860800347816	-160.02806775949617	451.5937673695254	148.23296472399312	-137.9922849871912	473.5367632323721	174.24799279919094	-192.23980247530795	500.79821321850505	175.97686540195917	-203.08794923488935	521.1171885082797	167.14909504511235	-205.3544130908565	543.1813359050685	153.81642191404018	-207.91913906486636	484.95865719499403	150.5518404437774	-117.67747118054106	502.224447515789	176.39908556446335	-156.6935600692463	539.2786224241988	166.62560292301993	-171.2264100782977	525.0136461338988	169.7411166950214	-97.61833112680947	566.7858206323391	169.53831684937632	-125.86127881875666	674.7970361942026	45.3188032507263	105.83454746343695	727.7860824507808	96.33986697730242	81.03457005002176	
92	0.60667	412.03021347887443	141.8901194378846	-174.88224908209742	433.58723060472335	140.19381775469284	-273.6619168107163	471.362221397888	139.54304334275432	-295.46217805881054	501.8157185979969	135.74359751851873	-294.93384243576537	538.7663244849562	136.05372322040958	-278.7597138490999	440.636910286125	151.4486985974163	-257.2365384254321	475.5104259228234	149.7853695541355	-277.9780837984054	508.5461325794402	144.89839960850057	-277.7479538191752	544.0295631398297	141.06799341961064	-261.1028714616502	451.6101335296446	164.99717957119162	-234.21033125205045	481.10265328140235	166.22332598585012	-250.1762164246792	512.4827528512867	160.03611084129176	-250.73135219213628	546.3509320177405	147.15043954962604	-241.279451880439	430.1244164222425	141.93762295608437	-160.0500088038228	451.63876377224335	148.2436106738153	-138.01343540778944	473.5819747096136	174.26145563116148	-192.2576403858702	500.8523631941866	175.98634661705012	-203.10291993549797	521.1630073041193	167.16403906125296	-205.36880892448403	543.2289873634141	153.83328847446307	-207.93242272569168	485.00166813366235	150.56735694303353	-117.6939956624677	502.26972498204503	176.4123628005516	-156.70823642200418	539.322730069711	166.64168346037752	-171.23957234837178	525.0578589317654	169.76040936082217	-97.63499196982852	566.8265078476489	169.5552207797823	-125.87146737608596	674.8278135833222	45.329324473393726	105.82524338693747	727.8192780492795	96.35197128875441	81.03105069148256	
93	0.61333	412.07988434616607	141.88084240226996	-174.90782407482232	433.64455580175155	140.1814773916334	-273.6849943633172	471.4174367873802	139.5342563946185	-295.48135912540863	501.8701625331308	135.73368828665596	-294.95022276828036	538.8228854720295	136.05500496550715	-278.7766610800321	440.68997267682755	151.43922343982769	-257.2597700788313	475.5630616373441	149.77853911263347	-277.9992956256528	508.5974984530857	144.88977567103478	-277.7655395947885	544.0816397320912	141.06745812784473	-261.1173873278202	451.66508563850806	164.98972635827366	-234.23451965447765	481.1520752171945	166.2185113029021	-250.19583198997648	512.5366659204501	160.03116228283207	-250.75191631451935	546.4045169570176	147.1546510953436	-241.29797121606774	430.17589820564564	141.93238644743826	-160.0775145678856	451.6836974466368	148.24159773327784	-138.0400475271076	473.6272986455398	174.25887352665765	-192.2809149840937	500.90656407374195	175.9805706792666	-203.1232242455123	521.2094657627014	167.1647257224189	-205.38833268836703	543.2785990333047	153.83620084031145	-207.94959743718366	485.0445152595785	150.57096434825803	-117.715869773799	502.31429668287683	176.4137364253011	-156.72898328407757	539.3664262473438	166.64506956634162	-171.25703737944437	525.1004133803312	169.7702685200107	-97.65549163218478	566.8671091114716	169.56330247660364	-125.88548678667853	674.8578657830888	45.33916344581654	105.81657437597366	727.8507042932549	96.36299857353788	81.02836604116855	
94	0.62	412.1305293223028	141.8581410069725	-174.93892137613693	433.70503719508787	140.1511103855892	-273.71398150490114	471.4774945752685	139.50590426346213	-295.50553923629593	501.92914637469505	135.70491215718874	-294.970445117425	538.8833460999501	136.0383280165349	-278.7956537874553	440.74442824309807	151.41340327598812	-257.2909836671878	475.6206245187513	149.751718189344	-278.02354560843787	508.653607384857	144.86414797109737	-277.78751887433924	544.1368450138167	141.05047017283397	-261.134554837246	451.72066969992477	164.9644882727458	-234.2648623057261	481.2026841005767	166.1967573974469	-250.22129127256596	512.5936486282287	160.00934588201207	-250.7762081709684	546.4602282451098	147.14245950790573	-241.31902456519296	430.2275411081485	141.91342743260026	-160.1109480974615	451.7283692245876	148.2274451828978	-138.07230726750555	473.67308437600656	174.24134128750728	-192.3097842194892	500.9606237554169	175.96031614903555	-203.14866535195677	521.2570422455555	167.1517048921098	-205.41292951509772	543.3300515865607	153.82539898868336	-207.97083654589989	485.087406059246	150.56215831637715	-117.74340510832626	502.35821043813434	176.40344731680122	-156.75566928497594	539.409994718898	166.63543854966045	-171.27880643055522	525.141198616833	169.7700465699842	-97.67980423181696	566.9081662685429	169.56195983917982	-125.90354839908383	674.8868576585974	45.34804936788983	105.80890733872639	727.8800205876563	96.37252995246487	81.02673719962237	
95	0.62667	412.18229839102764	141.82248465726698	-174.97612745780253	433.76853855742536	140.10583489206564	-273.74940398092485	471.5423624252774	139.46078783996523	-295.5351422600055	501.99222399465697	135.65917142052334	-294.994889835355	538.9469166067497	136.00506711953219	-278.8171872020651	440.8008836639813	151.3737049370391	-257.3299516641201	475.6828739876054	149.70769819337468	-278.0514973932854	508.71414270246237	144.82339720056999	-277.81406160221087	544.194830625761	141.0181131033007	-261.15486037767175	451.7765768315427	164.92397769695285	-234.3013392079605	481.2553949337179	166.15988918389985	-250.25291865010126	512.6532149305172	159.97257976632548	-250.80427280009695	546.5174204438339	147.1145968485748	-241.34267601656597	430.27901313002366	141.88123737764676	-160.15045517094228	451.77257369635316	148.201534907171	-138.11020307196137	473.71964156905307	174.21013628996127	-192.34417300369844	501.0143442388353	175.92675209461868	-203.17906134874718	521.3060696725721	167.12567116650365	-205.44238583182494	543.3829969049833	153.80142744380626	-207.9962847278933	485.1305244019554	150.5407051900078	-117.77676616862126	502.40163734614384	176.3817964864364	-156.78807292135986	539.4538541056739	166.61286296531142	-171.30491940406958	525.180190435972	169.7591618135438	-97.70795202413731	566.9500472096171	169.55066319605805	-125.92592441778228	674.9144675810516	45.3556625679794	105.80252931720986	727.9069242497166	96.38023412144221	81.02624205284586	
96	0.63333	412.2351939239141	141.77416834905918	-175.0198462423962	433.8345615569109	140.04872527243182	-273.79146936872604	471.61148162718627	139.401713405227	-295.57030481131824	502.0586720314459	135.59855602953868	-295.0238396954219	539.0126861928113	135.9569890061844	-278.8417834722805	440.8596383204275	151.32250067762556	-257.37580939128117	475.74906327554294	149.64958649128636	-278.08400745019907	508.77839023572284	144.7693686404711	-277.8452464411759	544.2550103509896	140.97184005942327	-261.1787801887322	451.8327012504205	164.8707973944159	-234.34364746936288	481.311003016301	166.10983505344979	-250.29090811537108	512.7146220131915	159.9227271911251	-250.83618882636418	546.5754491351724	147.07230041305158	-241.36907892904026	430.3300509408059	141.83627109999202	-160.19587853190163	451.81611936733145	148.1641366255494	-138.15347892162683	473.7671362328921	174.1664970453811	-192.38388055131117	501.06748216452087	175.88126029385128	-203.21429086274242	521.3566848245098	167.08733915606425	-205.4763806123899	543.4368897452356	153.76504660904297	-208.02594190831152	485.1739679524189	150.50678411734256	-117.81589930917282	502.4447760626546	176.34915570775345	-156.8258393623866	539.498434756918	166.5778462960017	-171.33545357445288	525.2174199793903	169.73721499077797	-97.73996429408155	566.9928239354379	169.52909325656583	-125.95287219753365	674.9403644146832	45.36160268874854	105.79761362304174	727.9311756890459	96.38586154241437	81.02674894100001	
